# xmcd
#
# Track frame offsets: 
#        150
#        17770
#        33671
#        48341
#        63509
#        80333
#        97533
#        114855
#        133179
#        146627
#        163213
#        182089
#
# Disc length: 2660 seconds
#
# Revision: 0
# Processed by: cddbd v1.5.2PL0 Copyright (c) Steve Scherf et al.
# Submitted via: ExactAudioCopy v0.99pb4
#
DISCID=9b0a620c
DTITLE=แมงปอ ชลธิชา - อาลัยพี่แอ๊ว
DYEAR=2008
DGENRE=Country
TTITLE0=อาลัยพี่แอ๊ว
TTITLE1=คิดถึงยอดรัก
TTITLE2=วิวาฟ้าแลบ
TTITLE3=คำเตือนของแม่
TTITLE4=รักเก้อเพราะก้อนอิฐ
TTITLE5=ได้ข่าวว่าแฟทิ้ง
TTITLE6=สาวนครชัยศรี
TTITLE7=หนูอยาก'นอุ้ม
TTITLE8=คอยรักหนุ่มตังเก
TTITLE9=อกหักมารักกับไก่
TTITLE10=สาบานก่อนบวช
TTITLE11=ตามล่าชายลวง
EXTD=
EXTT0=
EXTT1=
EXTT2=
EXTT3=
EXTT4=
EXTT5=
EXTT6=
EXTT7=
EXTT8=
EXTT9=
EXTT10=
EXTT11=
PLAYORDER=
